<?xml version="1.0" standalone="no"?><!DOCTYPE svg PUBLIC "-//W3C//DTD SVG 1.1//EN" "http://www.w3.org/Graphics/SVG/1.1/DTD/svg11.dtd"><svg t="1628333161513" class="icon" viewBox="0 0 1024 1024" version="1.1" xmlns="http://www.w3.org/2000/svg" p-id="3283" xmlns:xlink="http://www.w3.org/1999/xlink" width="200" height="200"><defs><style type="text/css"></style></defs><path d="M712.533333 640c-34.133333 98.133333-128 170.666667-243.2 170.666667-140.8 0-256-115.2-256-256 0-110.933333 72.533333-204.8 170.666667-243.2C384 307.2 384 302.933333 384 298.666667c0-42.666667 8.533333-85.333333 21.333333-123.733333C226.133333 204.8 85.333333 362.666667 85.333333 554.666667c0 213.333333 170.666667 384 384 384 192 0 349.866667-140.8 379.733333-320C810.666667 631.466667 768 640 725.333333 640 721.066667 640 716.8 640 712.533333 640z" p-id="3284" fill="#707070"></path><path d="M725.333333 42.666667c-140.8 0-256 115.2-256 256s115.2 256 256 256c140.8 0 256-115.2 256-256S866.133333 42.666667 725.333333 42.666667zM725.333333 426.666667c-72.533333 0-128-55.466667-128-128s55.466667-128 128-128c72.533333 0 128 55.466667 128 128S797.866667 426.666667 725.333333 426.666667z" p-id="3285" fill="#707070"></path></svg>